# xmcd CD database file
#
# Track frame offsets:
#	204
#	22234
#	43963
#	57148
#	75529
#	91570
#	111748
#	129332
#	144903
#	163564
#	181403
#	199706
#	214796
#
# Disc length: 3062 seconds
#
# Revision: 1
# Processed by: cddbd v1.5PL3 Copyright (c) Steve Scherf et al.
# Submitted via: CDex 1.51
#
DISCID=b10bf40d
DTITLE=Lou Pride - Twisting The Knife
DYEAR=1992
DGENRE=Blues
TTITLE0=I had a Talk With My Baby
TTITLE1=Twisting the Knife
TTITLE2=Revenge
TTITLE3=Tonight
TTITLE4=Lifetime Thing
TTITLE5=She spread her wings
TTITLE6=Love of mine
TTITLE7=I been missing you too
TTITLE8=Not for sale
TTITLE9=Breaking up with you
TTITLE10=I'm not through lovin you
TTITLE11=It's not funny anymore
TTITLE12=I didn't take your woman
EXTD=YEAR: 1992
EXTT0=
EXTT1=
EXTT2=
EXTT3=
EXTT4=
EXTT5=
EXTT6=
EXTT7=
EXTT8=
EXTT9=
EXTT10=
EXTT11=
EXTT12=
PLAYORDER=
